<?xml version="1.0" encoding="UTF-8" standalone="no"?>
<!-- Created with Inkscape (http://www.inkscape.org/) -->

<svg
   width="66.261581mm"
   height="101.77777mm"
   viewBox="0 0 66.261581 101.77777"
   version="1.1"
   id="svg1"
   xml:space="preserve"
   xmlns="http://www.w3.org/2000/svg"
   xmlns:svg="http://www.w3.org/2000/svg"><defs
     id="defs1" /><g
     id="layer1"
     transform="translate(-61.255174,-74.866232)"><path
       id="path4"
       style="fill:#54797f;fill-opacity:1;stroke-width:1.00175"
       d="m 69.736312,74.866231 v 39.094259 39.09425 H 98.626538 127.51676 V 113.96049 74.866231 H 98.626538 Z m -3.710368,0.254248 -1.027844,0.524516 c -0.56535,0.28843 -1.498586,1.059098 -2.073775,1.712557 -0.5752,0.653459 -1.186111,1.656088 -1.35754,2.228288 -0.2325,0.775909 -0.311609,10.481207 -0.311609,38.18217 0,20.42809 0.02965,37.14201 0.06615,37.1414 0.03645,-6.1e-4 0.658258,-0.30161 1.381827,-0.6687 0.72357,-0.36708 1.767279,-0.73955 2.319239,-0.82785 l 1.003556,-0.16072 v -39.06583 z m 32.694645,16.714226 c 1.572791,0.0041 2.634061,0.173385 3.909841,0.623734 0.96307,0.33997 2.30101,0.996536 2.97294,1.458826 1.20561,0.829499 1.24429,0.836809 2.95331,0.56379 1.21621,-0.19439 2.26432,-0.191712 3.52072,0.0083 0.98399,0.15662 2.62851,0.68772 3.65404,1.18029 1.28565,0.617519 2.3376,1.391709 3.38842,2.493387 0.89784,0.94129 1.85707,2.309798 2.33474,3.330548 0.44594,0.95296 0.93928,2.56107 1.09606,3.57394 0.21578,1.39425 0.20282,2.3001 -0.0527,3.73 -0.18563,1.03875 -0.74504,2.704 -1.24334,3.70004 -0.61724,1.23378 -1.44069,2.31078 -2.5833,3.37963 -1.07757,1.00802 -2.30717,1.84348 -3.43958,2.33681 l -1.76269,0.76791 v 5.91954 c 0,3.38834 -0.12324,6.41002 -0.28835,7.06572 -0.15865,0.63006 -0.64718,1.5805 -1.08572,2.11253 -0.43857,0.53204 -1.29315,1.23221 -1.8986,1.55598 -1.07516,0.57502 -1.3318,0.5899 -11.039632,0.6444 l -5.16e-4,5.2e-4 c -7.693663,0.0432 -10.236091,-0.0257 -11.25306,-0.30437 -0.949609,-0.26022 -1.622867,-0.68701 -2.428276,-1.53944 -0.612849,-0.64864 -1.243505,-1.64493 -1.401465,-2.21382 -0.16793,-0.60483 -0.287494,-3.58225 -0.288354,-7.17011 l -0.001,-6.13554 -1.295528,-0.46561 c -0.712399,-0.25618 -1.934841,-0.90306 -2.71663,-1.43712 -0.781799,-0.53406 -1.976192,-1.69899 -2.654102,-2.58899 -0.677919,-0.89001 -1.493352,-2.31304 -1.812292,-3.16208 -0.31895,-0.84903 -0.642619,-2.37832 -0.718819,-3.39876 -0.07626,-1.02042 -0.006,-2.57113 0.156063,-3.44578 0.162039,-0.87466 0.654737,-2.32445 1.094506,-3.22203 0.43977,-0.89757 1.44602,-2.289056 2.23604,-3.091795 0.918229,-0.933039 2.135302,-1.800205 3.374471,-2.404505 1.120409,-0.546369 2.693362,-1.061477 3.727421,-1.220597 1.236639,-0.19029 2.321155,-0.190656 3.511413,-5.17e-4 1.721009,0.27494 1.722556,0.274679 3.073715,-0.65474 0.743559,-0.511489 2.128145,-1.16994 3.076814,-1.46296 1.140619,-0.352299 2.455946,-0.531099 3.883484,-0.527099 z m -0.09405,3.583243 c -1.932288,-0.009 -2.460586,0.09241 -3.710885,0.712102 -0.801769,0.397369 -1.851514,1.094656 -2.332674,1.549776 -0.481159,0.455139 -1.162203,1.26288 -1.513602,1.795239 -0.35139,0.532345 -0.832386,1.726675 -1.069186,2.653585 -0.299499,1.17246 -0.376381,2.15344 -0.252181,3.22358 0.15615,1.34531 0.109356,1.60732 -0.374654,2.09134 -0.30437,0.30438 -0.892684,0.55346 -1.307414,0.55346 -0.422769,0 -0.969588,-0.23794 -1.244368,-0.54157 -0.37887,-0.41865 -0.510643,-1.06545 -0.580843,-2.84944 -0.07872,-2.00017 0.01109,-2.60337 0.675411,-4.52737 l 0.766361,-2.220024 -1.62574,0.130742 c -0.933689,0.07494 -2.126644,0.385955 -2.802413,0.730704 -0.64724,0.33019 -1.51057,0.846861 -1.918229,1.148251 -0.40765,0.301387 -1.149379,1.150497 -1.648479,1.886707 -0.499089,0.7362 -1.105888,2.03705 -1.348238,2.89078 -0.315729,1.11239 -0.387981,1.97595 -0.255281,3.04787 0.10185,0.82269 0.487916,2.13844 0.858345,2.92386 0.37043,0.78541 1.13023,1.8847 1.688269,2.44274 0.55803,0.55802 1.585139,1.30219 2.282548,1.65365 0.69741,0.35147 1.685522,0.72528 2.195732,0.83044 0.510209,0.10517 1.195948,0.36124 1.523938,0.56896 0.583359,0.36939 0.596346,0.48457 0.596346,5.27461 v 4.89737 h 11.264429 11.264429 v -4.65036 c 0,-4.50328 0.0192,-4.66956 0.61133,-5.26169 0.33631,-0.33632 1.07635,-0.69907 1.64434,-0.80564 0.56801,-0.10655 1.51542,-0.43453 2.1053,-0.72915 0.58987,-0.29463 1.58925,-1.03023 2.22106,-1.63453 0.63182,-0.60431 1.46669,-1.69527 1.85518,-2.42414 0.62973,-1.18137 1.08624,-1.61274 1.08624,-3.97547 0,-2.36631 -0.45651,-2.79577 -1.09399,-4.0044 -0.39271,-0.74455 -1.32254,-1.90097 -2.06654,-2.56987 -0.74671,-0.671368 -2.00447,-1.460149 -2.80758,-1.760618 -0.80018,-0.2994 -1.99987,-0.544153 -2.66599,-0.544153 -1.05095,0 -1.18549,0.06105 -1.01648,0.463537 0.10713,0.25511 0.40421,1.000762 0.66043,1.656744 0.25622,0.65599 0.55191,1.82885 0.65681,2.60605 0.1054,0.77719 0.10896,2.06874 0.009,2.87062 -0.11102,0.88853 -0.38063,1.65652 -0.6904,1.96629 -0.27957,0.27957 -0.84771,0.5085 -1.26245,0.5085 -0.41473,0 -0.93876,-0.20894 -1.16479,-0.46406 -0.29786,-0.33617 -0.44095,-1.22978 -0.51935,-3.24683 -0.0869,-2.23443 -0.2266,-3.01011 -0.709,-3.93568 -0.33046,-0.634021 -1.08234,-1.674724 -1.6707,-2.313033 -0.58836,-0.6383 -1.7426,-1.486837 -2.56521,-1.885156 -1.26096,-0.61059 -1.84917,-0.725323 -3.748611,-0.734323 z M 98.49373,129.99568 c -6.810024,0 -11.264429,0.0983 -11.264429,0.24805 0,0.13629 0.123935,0.57353 0.275435,0.97203 0.15151,0.39848 0.479775,0.87972 0.729155,1.06919 0.352799,0.2681 2.655312,0.34595 10.375594,0.35295 9.828195,0.008 9.927655,0.003 10.535275,-0.56793 0.36053,-0.33869 0.61392,-0.88482 0.61392,-1.32498 v -0.74931 z m -1.90376,26.76994 c -30.827969,0 -30.930372,0.002 -32.070911,0.55398 -0.629299,0.30464 -1.485163,0.96744 -1.901692,1.47277 -0.41653,0.50533 -0.893494,1.3732 -1.059884,1.92857 -0.16639,0.55536 -0.299623,1.47296 -0.296623,2.03915 0.0032,0.5662 0.226651,1.50618 0.496611,2.08928 0.269969,0.5831 0.833894,1.37396 1.253153,1.75751 0.41927,0.38357 1.120208,0.88607 1.557528,1.11622 0.437329,0.23015 0.884408,0.42291 0.993738,0.42891 0.10929,0.006 0.198954,-1.41588 0.198954,-3.1595 0,-2.91996 0.04554,-3.21312 0.579809,-3.71088 0.57676,-0.53741 0.753819,-0.54054 30.878219,-0.54054 h 30.297888 v -1.98747 -1.988 z m -12.805937,7.42126 v 2.12028 2.12029 h 21.866367 21.86636 v -2.12029 -2.12028 H 105.6504 Z m -14.445113,0.13281 -0.07131,6.16189 c -0.0391,3.38929 -0.0321,6.16242 0.0155,6.16242 0.04755,0 1.150304,-0.77535 2.451013,-1.72289 1.634148,-1.19045 2.605217,-1.72238 3.141927,-1.72238 0.530689,0 1.394733,0.46501 2.727482,1.46813 1.072849,0.80749 2.12922,1.53667 2.34766,1.62057 0.34696,0.13315 0.387862,-0.61335 0.325562,-5.90765 l -0.0708,-6.06009 H 74.77218 Z m 3.160531,3.17448 c 0.309338,0 0.541412,0.0673 0.696081,0.20205 0.112001,0.0957 0.183043,0.21277 0.213941,0.35037 0.0063,-0.01 0.01103,-0.0185 0.01809,-0.0284 0.119744,-0.16714 0.252791,-0.2957 0.399976,-0.38551 0.147185,-0.0923 0.294648,-0.13849 0.441833,-0.13849 0.137207,0 0.241848,0.0439 0.314193,0.13126 0.07484,0.0873 0.112138,0.21423 0.112138,0.38137 0,0.0674 -0.0061,0.14748 -0.0186,0.23978 -0.01247,0.0898 -0.02361,0.16328 -0.03359,0.22066 -0.01,0.0574 -0.01723,0.0974 -0.02222,0.11989 0.142196,-0.40663 0.301403,-0.68991 0.478524,-0.84956 0.177121,-0.16216 0.371897,-0.2434 0.583943,-0.2434 0.162154,0 0.289587,0.0573 0.381889,0.17208 0.0948,0.11476 0.14211,0.27724 0.14211,0.48679 0,0.0823 -0.01114,0.18472 -0.03359,0.30696 0.124733,-0.34426 0.270557,-0.59136 0.437699,-0.74104 0.167143,-0.14968 0.359157,-0.22479 0.576192,-0.22479 0.174627,0 0.30819,0.0562 0.400493,0.16846 0.0948,0.11226 0.14211,0.26974 0.14211,0.47181 0,0.10977 -0.01614,0.24281 -0.04858,0.39998 l -0.22841,1.07021 c -0.02495,0.12474 -0.03721,0.23214 -0.03721,0.32195 0,0.10477 0.0234,0.18326 0.0708,0.23564 0.04989,0.0524 0.118876,0.0786 0.206189,0.0786 0.08232,0 0.161927,-0.0273 0.239262,-0.0822 0.07983,-0.0549 0.173332,-0.14614 0.280603,-0.27337 0.02994,-0.0349 0.06387,-0.0522 0.101286,-0.0522 0.03243,0 0.05747,0.015 0.07493,0.045 0.01996,0.0299 0.02946,0.0711 0.02946,0.12351 0,0.0973 -0.0234,0.17465 -0.0708,0.23203 -0.129722,0.15716 -0.258278,0.27182 -0.385506,0.34416 -0.127228,0.0724 -0.260791,0.10852 -0.400492,0.10852 -0.212047,0 -0.3779,-0.0623 -0.497644,-0.18707 -0.119744,-0.12722 -0.179318,-0.29696 -0.179318,-0.50901 0,-0.14718 0.02953,-0.36035 0.0894,-0.63975 l 0.149861,-0.68472 c 0.005,-0.0224 0.01388,-0.0625 0.02635,-0.11989 0.01247,-0.0574 0.02249,-0.11082 0.02997,-0.16071 0.0075,-0.0524 0.01085,-0.10358 0.01085,-0.15348 0,-0.0873 -0.01727,-0.15241 -0.05219,-0.19482 -0.03243,-0.0449 -0.07974,-0.0672 -0.142111,-0.0672 -0.117249,0 -0.240797,0.0762 -0.37052,0.22841 -0.127228,0.14968 -0.249653,0.39902 -0.366902,0.74828 -0.114755,0.34925 -0.208258,0.80338 -0.280603,1.36219 -0.01746,0.14968 -0.04863,0.25043 -0.09354,0.30282 -0.04241,0.0499 -0.111997,0.0749 -0.209289,0.0749 -0.08482,0 -0.147154,-0.02 -0.187069,-0.0599 -0.03742,-0.0399 -0.05633,-0.11451 -0.05633,-0.22428 0,-0.10228 0.0139,-0.23584 0.04134,-0.40049 0.02744,-0.16714 0.06198,-0.36304 0.104386,-0.58756 0.114755,-0.60371 0.172083,-0.99275 0.172083,-1.16737 0,-0.0948 -0.01839,-0.1649 -0.05581,-0.20981 -0.03493,-0.0449 -0.08889,-0.0672 -0.16123,-0.0672 -0.122239,0 -0.248032,0.0696 -0.377755,0.20929 -0.129722,0.13721 -0.257156,0.38318 -0.381889,0.73742 -0.122238,0.35175 -0.224117,0.82816 -0.306441,1.42937 -0.01746,0.12723 -0.04362,0.21573 -0.07855,0.26562 -0.03243,0.0499 -0.09753,0.0749 -0.19482,0.0749 -0.0923,0 -0.158523,-0.02 -0.198438,-0.0599 -0.03991,-0.0424 -0.05994,-0.12089 -0.05994,-0.23565 0,-0.0773 0.0078,-0.17584 0.02274,-0.29559 0.01746,-0.12223 0.04475,-0.28921 0.08217,-0.50126 0.06486,-0.39166 0.116059,-0.73114 0.153479,-1.01802 0.02245,-0.17962 0.03359,-0.32933 0.03359,-0.44907 0,-0.11226 -0.04118,-0.16847 -0.123506,-0.16847 -0.06486,0 -0.143342,0.0339 -0.235645,0.10129 -0.08981,0.0649 -0.189441,0.1695 -0.299206,0.31419 -0.03493,0.0474 -0.07386,0.0713 -0.116272,0.0713 -0.01843,0 -0.03585,-0.005 -0.05219,-0.014 -0.01356,0.0522 -0.03182,0.0999 -0.05633,0.14108 -0.05239,0.0898 -0.128106,0.13436 -0.227893,0.13436 -0.06985,0 -0.124933,-0.0145 -0.164848,-0.0444 -0.03991,-0.0324 -0.05994,-0.0803 -0.05994,-0.14263 0,-0.0424 0.0061,-0.0886 0.0186,-0.13849 0.01247,-0.0823 0.01912,-0.13802 0.01912,-0.16795 0,-0.0898 -0.03393,-0.16216 -0.101285,-0.21704 -0.06736,-0.0574 -0.179767,-0.0863 -0.336931,-0.0863 -0.212046,0 -0.381268,0.0451 -0.508496,0.13487 -0.127228,0.0898 -0.191203,0.2106 -0.191203,0.36277 0,0.11725 0.04731,0.21464 0.142111,0.29197 0.09729,0.0748 0.25477,0.11603 0.471805,0.12351 0.05488,0.002 0.0933,0.0148 0.115756,0.0372 0.02245,0.0224 0.03359,0.0603 0.03359,0.11265 0,0.16465 -0.0746,0.24814 -0.224275,0.25063 -0.207058,0.005 -0.379042,0.0334 -0.516248,0.0858 -0.134712,0.0524 -0.233223,0.11973 -0.295589,0.20205 -0.05987,0.0798 -0.08992,0.16608 -0.08992,0.25838 0,0.15467 0.07235,0.27209 0.217041,0.35192 0.14469,0.0773 0.374002,0.11575 0.68833,0.11575 0.207057,0 0.425231,-0.0234 0.65474,-0.0708 0.232004,-0.0499 0.430665,-0.10999 0.595313,-0.17984 0.03742,-0.015 0.06859,-0.0222 0.09353,-0.0222 0.03991,0 0.06996,0.0145 0.08992,0.0444 0.01996,0.0299 0.02997,0.0689 0.02997,0.11628 0,0.0748 -0.01891,0.13829 -0.05633,0.19068 -0.03493,0.0524 -0.09614,0.0997 -0.183451,0.14211 -0.147185,0.0699 -0.338077,0.12606 -0.572575,0.16847 -0.234499,0.0399 -0.464933,0.0599 -0.691948,0.0599 -0.314327,0 -0.577569,-0.035 -0.789615,-0.1049 -0.212047,-0.0724 -0.370648,-0.17086 -0.475424,-0.29559 -0.102281,-0.12473 -0.153479,-0.26555 -0.153479,-0.42271 0,-0.21454 0.06847,-0.39654 0.205673,-0.54622 0.139701,-0.15218 0.344492,-0.26183 0.613916,-0.32918 -0.147186,-0.0424 -0.260719,-0.11752 -0.340548,-0.22479 -0.07734,-0.10728 -0.115755,-0.22694 -0.115755,-0.35916 0,-0.17961 0.05569,-0.33821 0.167948,-0.47542 0.114755,-0.1397 0.268348,-0.24659 0.460437,-0.32143 0.192089,-0.0748 0.403011,-0.11265 0.63252,-0.11265 z" /></g></svg>
